<svg xmlns="http://www.w3.org/2000/svg" width="176" height="175.999"><path d="M176 87.999a88 88 0 1 1-88-88 88 88 0 0 1 88 88" fill="#cd1423"/><path d="M22.579 70.663a8.7 8.7 0 0 0 5 1.612c1.847 0 3.695-.7 3.695-2.62 0-4.332-9.571-3.795-9.571-10.545 0-3.258 2.586-6.112 7.187-6.112a12.523 12.523 0 0 1 5.41 1.111v3.695a11.48 11.48 0 0 0-5.272-1.411c-1.545 0-3.023.6-3.023 2.384 0 4.064 9.571 3.526 9.571 10.546 0 3.929-3.358 6.347-7.892 6.347A11.892 11.892 0 0 1 21 73.756ZM41.75 64.349c0-6.716 4.6-11.351 11.15-11.351s11.149 4.668 11.149 11.351c0 6.784-4.7 11.318-11.149 11.318-6.515 0-11.15-4.534-11.15-11.318m18 0c0-4.9-2.653-7.959-6.851-7.959-4.1 0-6.851 2.922-6.851 7.959 0 5 2.754 7.926 6.851 7.926 4.063 0 6.851-2.922 6.851-7.926M71.839 53.199h4.03v18.84h7.858v3.292H71.839ZM89.955 53.199h12.224l-1.074 3.291h-7.12v5.911h7.084v3.292h-7.086v6.347h8.227v3.291H89.955ZM109.983 53.199h4l9.437 12.091a62.54 62.54 0 0 1 2.486 3.426h.067c-.067-1.176-.067-2.519-.067-3.728V53.199h4.063V75.33h-3.696L116.5 62.736c-.974-1.242-1.747-2.35-2.485-3.392h-.067c.067.907.067 2.183.067 3.426v12.56h-4.032ZM142.744 56.49h-6.449v-3.291h17.463l-1.04 3.291h-5.945v18.84h-4.03ZM22.558 92.071a4.606 4.606 0 0 1-.4-2.035v-6.564h1.908v6.437a3.161 3.161 0 0 0 .286 1.415 2.2 2.2 0 0 0 2.145 1.176 2.2 2.2 0 0 0 2.146-1.176 3.186 3.186 0 0 0 .286-1.431v-6.421h1.907v6.564a4.62 4.62 0 0 1-.4 2.05c-.651 1.351-2.019 2.019-3.942 2.019-1.939 0-3.305-.668-3.942-2.035" fill="#fff"/><path data-name="N" d="M37.941 83.473h1.89l4.466 5.721c.477.62.859 1.145 1.177 1.622h.032c-.032-.557-.032-1.193-.032-1.765v-5.579h1.923v10.474h-1.748l-4.625-5.96c-.461-.588-.826-1.113-1.176-1.606h-.032c.032.43.032 1.033.032 1.622v5.944h-1.907Z" fill="#fff"/><path fill="#fff" d="M55.684 83.473h1.906v10.474h-1.906zM63.944 83.472h2.082l2.194 5.69c.3.81.54 1.511.762 2.13h.032c.207-.6.445-1.3.779-2.145l2.177-5.675h2.066L69.759 94.01H68.22Z"/><path data-name="E" d="M80.54 83.473h5.785l-.508 1.557h-3.37v2.8h3.358v1.557h-3.354v3h3.894v1.558h-5.8Z" fill="#fff"/><path d="M93.508 83.473h2.86a5 5 0 0 1 2.241.429 2.659 2.659 0 0 1 1.558 2.559 2.726 2.726 0 0 1-2.05 2.7v.032a5.064 5.064 0 0 1 1.3 1.7l1.748 3.051h-2.194l-1.51-2.653c-.508-.938-.89-1.367-1.144-1.431h-.907v4.084h-1.906Zm2.765 4.832a2.286 2.286 0 0 0 1.16-.27 1.512 1.512 0 0 0 .731-1.384 1.473 1.473 0 0 0-.7-1.318 1.968 1.968 0 0 0-1.176-.3h-.874v3.269Z" fill="#fff"/><path data-name="S" d="M108.135 91.738a4.122 4.122 0 0 0 2.368.764c.874 0 1.748-.334 1.748-1.241 0-2.05-4.529-1.8-4.529-4.99 0-1.542 1.223-2.893 3.4-2.893a5.933 5.933 0 0 1 2.559.524v1.749a5.441 5.441 0 0 0-2.5-.667c-.731 0-1.43.286-1.43 1.128 0 1.924 4.53 1.669 4.53 4.991 0 1.86-1.589 3-3.735 3a5.631 5.631 0 0 1-3.163-.906Z" fill="#fff"/><path data-name="I" fill="#fff" d="M121.317 83.473h1.906v10.474h-1.906z"/><path data-name="T" d="M133.272 85.03h-3.051v-1.557h8.265l-.493 1.557h-2.813v8.916h-1.907Z" fill="#fff"/><path d="m147.412 89.802-3.575-6.326h2.1l2.448 4.625h.032l2.432-4.625h2.065l-3.575 6.342v4.132h-1.924Z" fill="#fff"/><path fill="none" stroke="#fff" stroke-width="1.687" d="M153.045 103.138H21.574"/><path data-name="S" d="M22.124 120.546a4.126 4.126 0 0 0 2.368.763c.875 0 1.749-.334 1.749-1.24 0-2.05-4.53-1.8-4.53-4.99 0-1.542 1.223-2.893 3.4-2.893a5.922 5.922 0 0 1 2.559.525v1.748a5.441 5.441 0 0 0-2.5-.667c-.73 0-1.431.286-1.431 1.128 0 1.923 4.53 1.669 4.53 4.991 0 1.86-1.589 3-3.735 3a5.636 5.636 0 0 1-3.163-.905Z" fill="#fff"/><path data-name="O" d="M31.055 117.558a5.278 5.278 0 1 1 5.277 5.356 5.091 5.091 0 0 1-5.277-5.356m8.52 0c0-2.321-1.256-3.767-3.242-3.767-1.939 0-3.243 1.382-3.243 3.767 0 2.368 1.3 3.751 3.243 3.751 1.923 0 3.242-1.383 3.242-3.751" fill="#fff"/><path data-name="U" d="M46.166 120.88a4.6 4.6 0 0 1-.4-2.035v-6.563h1.908v6.437a3.16 3.16 0 0 0 .292 1.414 2.546 2.546 0 0 0 4.291 0 3.186 3.186 0 0 0 .286-1.431v-6.42h1.907v6.563a4.623 4.623 0 0 1-.4 2.051c-.651 1.351-2.019 2.018-3.942 2.018-1.939 0-3.306-.667-3.942-2.035" fill="#fff"/><path data-name="T" d="M60.705 113.839h-3.052v-1.557h8.265l-.494 1.557h-2.812v8.916h-1.907Z" fill="#fff"/><path d="M69.055 112.282h1.908v4.323h5.086v-4.323h1.924v10.474h-1.924v-4.53h-5.086v4.53h-1.908ZM85.245 112.234h1.462l4.2 10.522h-2.022l-1.018-2.623h-3.734l-.985 2.623h-1.955Zm2.035 6.342-.731-2.082a21.332 21.332 0 0 1-.525-1.621h-.032c-.1.366-.255.827-.54 1.637l-.763 2.066ZM94.165 112.282h1.732l2.75 3.958c.366.54.636.937.874 1.351h.032c.222-.4.492-.859.857-1.414l2.512-3.894h1.743v10.474h-1.924v-5.918c0-.429 0-.969.032-1.383h-.032a12.631 12.631 0 0 1-.715 1.176l-2.066 3.21h-.874l-2.289-3.29a9.688 9.688 0 0 1-.715-1.082h-.032c.015.414.015.954.015 1.32v5.96h-1.9ZM109.085 112.282h2.528a5.3 5.3 0 0 1 2.353.445 3.409 3.409 0 0 1-.3 6.055 6.07 6.07 0 0 1-2.225.366h-.446v3.608h-1.907Zm2.479 5.308a2.67 2.67 0 0 0 1.224-.238 1.665 1.665 0 0 0 .874-1.637 1.781 1.781 0 0 0-.827-1.6 2.611 2.611 0 0 0-1.3-.271h-.541v3.751Z" fill="#fff"/><path data-name="T" d="M121.511 113.839h-3.051v-1.557h8.265l-.493 1.557h-2.813v8.916h-1.907Z" fill="#fff"/><path data-name="O" d="M129.327 117.558a5.277 5.277 0 1 1 5.277 5.356 5.09 5.09 0 0 1-5.277-5.356m8.519 0c0-2.321-1.256-3.767-3.242-3.767-1.939 0-3.242 1.382-3.242 3.767 0 2.368 1.3 3.751 3.242 3.751 1.923 0 3.242-1.383 3.242-3.751" fill="#fff"/><path data-name="N" d="M143.295 112.282h1.891l4.466 5.721c.477.62.859 1.144 1.176 1.621h.032c-.032-.556-.032-1.193-.032-1.765v-5.578h1.924v10.474h-1.749l-4.625-5.96c-.461-.588-.826-1.113-1.177-1.606h-.032c.032.429.032 1.033.032 1.621v5.945h-1.906Z" fill="#fff"/></svg>